<svg version="1.1" xmlns="http://www.w3.org/2000/svg" xmlns:xlink="http://www.w3.org/1999/xlink" width="720" height="720"><g transform="translate(35,35)"><g transform="translate(0,650)" fill="none" font-size="10" font-family="sans-serif" text-anchor="middle"><path class="domain" stroke="#000" d="M0.5,6V0.5H650.5V6"></path><g class="tick" opacity="1" transform="translate(0.5,0)"><line stroke="#000" y2="6"></line><text fill="#000" y="9" dy="0.71em">-1</text></g><g class="tick" opacity="1" transform="translate(30.045454545454547,0)"><line stroke="#000" y2="6"></line><text fill="#000" y="9" dy="0.71em">0</text></g><g class="tick" opacity="1" transform="translate(59.59090909090909,0)"><line stroke="#000" y2="6"></line><text fill="#000" y="9" dy="0.71em">1</text></g><g class="tick" opacity="1" transform="translate(89.13636363636363,0)"><line stroke="#000" y2="6"></line><text fill="#000" y="9" dy="0.71em">2</text></g><g class="tick" opacity="1" transform="translate(118.68181818181819,0)"><line stroke="#000" y2="6"></line><text fill="#000" y="9" dy="0.71em">3</text></g><g class="tick" opacity="1" transform="translate(148.22727272727272,0)"><line stroke="#000" y2="6"></line><text fill="#000" y="9" dy="0.71em">4</text></g><g class="tick" opacity="1" transform="translate(177.77272727272725,0)"><line stroke="#000" y2="6"></line><text fill="#000" y="9" dy="0.71em">5</text></g><g class="tick" opacity="1" transform="translate(207.3181818181818,0)"><line stroke="#000" y2="6"></line><text fill="#000" y="9" dy="0.71em">6</text></g><g class="tick" opacity="1" transform="translate(236.86363636363637,0)"><line stroke="#000" y2="6"></line><text fill="#000" y="9" dy="0.71em">7</text></g><g class="tick" opacity="1" transform="translate(266.40909090909093,0)"><line stroke="#000" y2="6"></line><text fill="#000" y="9" dy="0.71em">8</text></g><g class="tick" opacity="1" transform="translate(295.95454545454544,0)"><line stroke="#000" y2="6"></line><text fill="#000" y="9" dy="0.71em">9</text></g><g class="tick" opacity="1" transform="translate(325.5,0)"><line stroke="#000" y2="6"></line><text fill="#000" y="9" dy="0.71em">10</text></g><g class="tick" opacity="1" transform="translate(355.0454545454545,0)"><line stroke="#000" y2="6"></line><text fill="#000" y="9" dy="0.71em">11</text></g><g class="tick" opacity="1" transform="translate(384.5909090909091,0)"><line stroke="#000" y2="6"></line><text fill="#000" y="9" dy="0.71em">12</text></g><g class="tick" opacity="1" transform="translate(414.1363636363636,0)"><line stroke="#000" y2="6"></line><text fill="#000" y="9" dy="0.71em">13</text></g><g class="tick" opacity="1" transform="translate(443.68181818181813,0)"><line stroke="#000" y2="6"></line><text fill="#000" y="9" dy="0.71em">14</text></g><g class="tick" opacity="1" transform="translate(473.22727272727275,0)"><line stroke="#000" y2="6"></line><text fill="#000" y="9" dy="0.71em">15</text></g><g class="tick" opacity="1" transform="translate(502.77272727272725,0)"><line stroke="#000" y2="6"></line><text fill="#000" y="9" dy="0.71em">16</text></g><g class="tick" opacity="1" transform="translate(532.3181818181819,0)"><line stroke="#000" y2="6"></line><text fill="#000" y="9" dy="0.71em">17</text></g><g class="tick" opacity="1" transform="translate(561.8636363636364,0)"><line stroke="#000" y2="6"></line><text fill="#000" y="9" dy="0.71em">18</text></g><g class="tick" opacity="1" transform="translate(591.4090909090909,0)"><line stroke="#000" y2="6"></line><text fill="#000" y="9" dy="0.71em">19</text></g><g class="tick" opacity="1" transform="translate(620.9545454545455,0)"><line stroke="#000" y2="6"></line><text fill="#000" y="9" dy="0.71em">20</text></g><g class="tick" opacity="1" transform="translate(650.5,0)"><line stroke="#000" y2="6"></line><text fill="#000" y="9" dy="0.71em">21</text></g></g><g transform="translate(0,0)" fill="none" font-size="10" font-family="sans-serif" text-anchor="end"><path class="domain" stroke="#000" d="M-6,650.5H0.5V0.5H-6"></path><g class="tick" opacity="1" transform="translate(0,650.5)"><line stroke="#000" x2="-6"></line><text fill="#000" x="-9" dy="0.32em">-1</text></g><g class="tick" opacity="1" transform="translate(0,620.9545454545455)"><line stroke="#000" x2="-6"></line><text fill="#000" x="-9" dy="0.32em">0</text></g><g class="tick" opacity="1" transform="translate(0,591.4090909090909)"><line stroke="#000" x2="-6"></line><text fill="#000" x="-9" dy="0.32em">1</text></g><g class="tick" opacity="1" transform="translate(0,561.8636363636364)"><line stroke="#000" x2="-6"></line><text fill="#000" x="-9" dy="0.32em">2</text></g><g class="tick" opacity="1" transform="translate(0,532.3181818181818)"><line stroke="#000" x2="-6"></line><text fill="#000" x="-9" dy="0.32em">3</text></g><g class="tick" opacity="1" transform="translate(0,502.77272727272725)"><line stroke="#000" x2="-6"></line><text fill="#000" x="-9" dy="0.32em">4</text></g><g class="tick" opacity="1" transform="translate(0,473.22727272727275)"><line stroke="#000" x2="-6"></line><text fill="#000" x="-9" dy="0.32em">5</text></g><g class="tick" opacity="1" transform="translate(0,443.6818181818182)"><line stroke="#000" x2="-6"></line><text fill="#000" x="-9" dy="0.32em">6</text></g><g class="tick" opacity="1" transform="translate(0,414.1363636363636)"><line stroke="#000" x2="-6"></line><text fill="#000" x="-9" dy="0.32em">7</text></g><g class="tick" opacity="1" transform="translate(0,384.59090909090907)"><line stroke="#000" x2="-6"></line><text fill="#000" x="-9" dy="0.32em">8</text></g><g class="tick" opacity="1" transform="translate(0,355.04545454545456)"><line stroke="#000" x2="-6"></line><text fill="#000" x="-9" dy="0.32em">9</text></g><g class="tick" opacity="1" transform="translate(0,325.5)"><line stroke="#000" x2="-6"></line><text fill="#000" x="-9" dy="0.32em">10</text></g><g class="tick" opacity="1" transform="translate(0,295.9545454545455)"><line stroke="#000" x2="-6"></line><text fill="#000" x="-9" dy="0.32em">11</text></g><g class="tick" opacity="1" transform="translate(0,266.4090909090909)"><line stroke="#000" x2="-6"></line><text fill="#000" x="-9" dy="0.32em">12</text></g><g class="tick" opacity="1" transform="translate(0,236.86363636363637)"><line stroke="#000" x2="-6"></line><text fill="#000" x="-9" dy="0.32em">13</text></g><g class="tick" opacity="1" transform="translate(0,207.31818181818187)"><line stroke="#000" x2="-6"></line><text fill="#000" x="-9" dy="0.32em">14</text></g><g class="tick" opacity="1" transform="translate(0,177.77272727272725)"><line stroke="#000" x2="-6"></line><text fill="#000" x="-9" dy="0.32em">15</text></g><g class="tick" opacity="1" transform="translate(0,148.22727272727275)"><line stroke="#000" x2="-6"></line><text fill="#000" x="-9" dy="0.32em">16</text></g><g class="tick" opacity="1" transform="translate(0,118.68181818181813)"><line stroke="#000" x2="-6"></line><text fill="#000" x="-9" dy="0.32em">17</text></g><g class="tick" opacity="1" transform="translate(0,89.13636363636363)"><line stroke="#000" x2="-6"></line><text fill="#000" x="-9" dy="0.32em">18</text></g><g class="tick" opacity="1" transform="translate(0,59.59090909090912)"><line stroke="#000" x2="-6"></line><text fill="#000" x="-9" dy="0.32em">19</text></g><g class="tick" opacity="1" transform="translate(0,30.045454545454504)"><line stroke="#000" x2="-6"></line><text fill="#000" x="-9" dy="0.32em">20</text></g><g class="tick" opacity="1" transform="translate(0,0.5)"><line stroke="#000" x2="-6"></line><text fill="#000" x="-9" dy="0.32em">21</text></g></g><circle cx="29.545454545454547" cy="620.4545454545455" r="10" style="fill: #ff7f0e;"></circle><circle cx="620.4545454545455" cy="29.545454545454504" r="5" style="fill: #9467bd;"></circle><circle cx="325" cy="620.4545454545455" r="12" style="fill: #2ca02c;"></circle></g></svg>