<svg version="1.1" xmlns="http://www.w3.org/2000/svg" xmlns:xlink="http://www.w3.org/1999/xlink" width="720" height="720"><g transform="translate(50,50)" viewBox="0 0 914 914"><g transform="translate(0,600)" fill="none" font-size="10" font-family="sans-serif" text-anchor="middle"><path class="domain" stroke="#000" d="M0.5,6V0.5H600.5V6"></path><g class="tick" opacity="1" transform="translate(0.5,0)"><line stroke="#000" y2="6"></line><text fill="#000" y="9" dy="0.71em">0</text></g><g class="tick" opacity="1" transform="translate(30.5,0)"><line stroke="#000" y2="6"></line><text fill="#000" y="9" dy="0.71em">1</text></g><g class="tick" opacity="1" transform="translate(60.5,0)"><line stroke="#000" y2="6"></line><text fill="#000" y="9" dy="0.71em">2</text></g><g class="tick" opacity="1" transform="translate(90.5,0)"><line stroke="#000" y2="6"></line><text fill="#000" y="9" dy="0.71em">3</text></g><g class="tick" opacity="1" transform="translate(120.5,0)"><line stroke="#000" y2="6"></line><text fill="#000" y="9" dy="0.71em">4</text></g><g class="tick" opacity="1" transform="translate(150.5,0)"><line stroke="#000" y2="6"></line><text fill="#000" y="9" dy="0.71em">5</text></g><g class="tick" opacity="1" transform="translate(180.5,0)"><line stroke="#000" y2="6"></line><text fill="#000" y="9" dy="0.71em">6</text></g><g class="tick" opacity="1" transform="translate(210.5,0)"><line stroke="#000" y2="6"></line><text fill="#000" y="9" dy="0.71em">7</text></g><g class="tick" opacity="1" transform="translate(240.5,0)"><line stroke="#000" y2="6"></line><text fill="#000" y="9" dy="0.71em">8</text></g><g class="tick" opacity="1" transform="translate(270.5,0)"><line stroke="#000" y2="6"></line><text fill="#000" y="9" dy="0.71em">9</text></g><g class="tick" opacity="1" transform="translate(300.5,0)"><line stroke="#000" y2="6"></line><text fill="#000" y="9" dy="0.71em">10</text></g><g class="tick" opacity="1" transform="translate(330.5,0)"><line stroke="#000" y2="6"></line><text fill="#000" y="9" dy="0.71em">11</text></g><g class="tick" opacity="1" transform="translate(360.5,0)"><line stroke="#000" y2="6"></line><text fill="#000" y="9" dy="0.71em">12</text></g><g class="tick" opacity="1" transform="translate(390.5,0)"><line stroke="#000" y2="6"></line><text fill="#000" y="9" dy="0.71em">13</text></g><g class="tick" opacity="1" transform="translate(420.5,0)"><line stroke="#000" y2="6"></line><text fill="#000" y="9" dy="0.71em">14</text></g><g class="tick" opacity="1" transform="translate(450.5,0)"><line stroke="#000" y2="6"></line><text fill="#000" y="9" dy="0.71em">15</text></g><g class="tick" opacity="1" transform="translate(480.5,0)"><line stroke="#000" y2="6"></line><text fill="#000" y="9" dy="0.71em">16</text></g><g class="tick" opacity="1" transform="translate(510.5,0)"><line stroke="#000" y2="6"></line><text fill="#000" y="9" dy="0.71em">17</text></g><g class="tick" opacity="1" transform="translate(540.5,0)"><line stroke="#000" y2="6"></line><text fill="#000" y="9" dy="0.71em">18</text></g><g class="tick" opacity="1" transform="translate(570.5,0)"><line stroke="#000" y2="6"></line><text fill="#000" y="9" dy="0.71em">19</text></g><g class="tick" opacity="1" transform="translate(600.5,0)"><line stroke="#000" y2="6"></line><text fill="#000" y="9" dy="0.71em">20</text></g></g><g transform="translate(0,0)" fill="none" font-size="10" font-family="sans-serif" text-anchor="end"><path class="domain" stroke="#000" d="M-6,600.5H0.5V0.5H-6"></path><g class="tick" opacity="1" transform="translate(0,600.5)"><line stroke="#000" x2="-6"></line><text fill="#000" x="-9" dy="0.32em">0</text></g><g class="tick" opacity="1" transform="translate(0,570.5)"><line stroke="#000" x2="-6"></line><text fill="#000" x="-9" dy="0.32em">1</text></g><g class="tick" opacity="1" transform="translate(0,540.5)"><line stroke="#000" x2="-6"></line><text fill="#000" x="-9" dy="0.32em">2</text></g><g class="tick" opacity="1" transform="translate(0,510.5)"><line stroke="#000" x2="-6"></line><text fill="#000" x="-9" dy="0.32em">3</text></g><g class="tick" opacity="1" transform="translate(0,480.5)"><line stroke="#000" x2="-6"></line><text fill="#000" x="-9" dy="0.32em">4</text></g><g class="tick" opacity="1" transform="translate(0,450.5)"><line stroke="#000" x2="-6"></line><text fill="#000" x="-9" dy="0.32em">5</text></g><g class="tick" opacity="1" transform="translate(0,420.5)"><line stroke="#000" x2="-6"></line><text fill="#000" x="-9" dy="0.32em">6</text></g><g class="tick" opacity="1" transform="translate(0,390.5)"><line stroke="#000" x2="-6"></line><text fill="#000" x="-9" dy="0.32em">7</text></g><g class="tick" opacity="1" transform="translate(0,360.5)"><line stroke="#000" x2="-6"></line><text fill="#000" x="-9" dy="0.32em">8</text></g><g class="tick" opacity="1" transform="translate(0,330.5)"><line stroke="#000" x2="-6"></line><text fill="#000" x="-9" dy="0.32em">9</text></g><g class="tick" opacity="1" transform="translate(0,300.5)"><line stroke="#000" x2="-6"></line><text fill="#000" x="-9" dy="0.32em">10</text></g><g class="tick" opacity="1" transform="translate(0,270.5)"><line stroke="#000" x2="-6"></line><text fill="#000" x="-9" dy="0.32em">11</text></g><g class="tick" opacity="1" transform="translate(0,240.5)"><line stroke="#000" x2="-6"></line><text fill="#000" x="-9" dy="0.32em">12</text></g><g class="tick" opacity="1" transform="translate(0,210.5)"><line stroke="#000" x2="-6"></line><text fill="#000" x="-9" dy="0.32em">13</text></g><g class="tick" opacity="1" transform="translate(0,180.5)"><line stroke="#000" x2="-6"></line><text fill="#000" x="-9" dy="0.32em">14</text></g><g class="tick" opacity="1" transform="translate(0,150.5)"><line stroke="#000" x2="-6"></line><text fill="#000" x="-9" dy="0.32em">15</text></g><g class="tick" opacity="1" transform="translate(0,120.5)"><line stroke="#000" x2="-6"></line><text fill="#000" x="-9" dy="0.32em">16</text></g><g class="tick" opacity="1" transform="translate(0,90.5)"><line stroke="#000" x2="-6"></line><text fill="#000" x="-9" dy="0.32em">17</text></g><g class="tick" opacity="1" transform="translate(0,60.5)"><line stroke="#000" x2="-6"></line><text fill="#000" x="-9" dy="0.32em">18</text></g><g class="tick" opacity="1" transform="translate(0,30.5)"><line stroke="#000" x2="-6"></line><text fill="#000" x="-9" dy="0.32em">19</text></g><g class="tick" opacity="1" transform="translate(0,0.5)"><line stroke="#000" x2="-6"></line><text fill="#000" x="-9" dy="0.32em">20</text></g></g><circle cx="0" cy="0" r="10"></circle><circle cx="600" cy="600" r="5"></circle><circle cx="300" cy="0" r="12"></circle></g></svg>